<?xml version="1.0" standalone="no"?>
<!DOCTYPE svg PUBLIC "-//W3C//DTD SVG 20010904//EN"
 "http://www.w3.org/TR/2001/REC-SVG-20010904/DTD/svg10.dtd">
<svg version="1.0" xmlns="http://www.w3.org/2000/svg"
 width="2652.000000pt" height="2652.000000pt" viewBox="0 0 2652.000000 2652.000000"
 preserveAspectRatio="xMidYMid meet">
<metadata>
Created by potrace 1.14, written by Peter Selinger 2001-2017
</metadata>
<g transform="translate(0.000000,2652.000000) scale(0.100000,-0.100000)"
fill="#000000" stroke="none">
<path d="M12993 25113 c31 -2 83 -2 115 0 31 2 5 3 -58 3 -63 0 -89 -1 -57 -3z"/>
<path d="M13413 25113 c31 -2 83 -2 115 0 31 2 5 3 -58 3 -63 0 -89 -1 -57 -3z"/>
<path d="M12693 25103 c15 -2 37 -2 50 0 12 2 0 4 -28 4 -27 0 -38 -2 -22 -4z"/>
<path d="M13783 25103 c15 -2 37 -2 50 0 12 2 0 4 -28 4 -27 0 -38 -2 -22 -4z"/>
<path d="M12508 25093 c12 -2 30 -2 40 0 9 3 -1 5 -23 4 -22 0 -30 -2 -17 -4z"/>
<path d="M13978 25093 c12 -2 30 -2 40 0 9 3 -1 5 -23 4 -22 0 -30 -2 -17 -4z"/>
<path d="M12363 25083 c9 -2 23 -2 30 0 6 3 -1 5 -18 5 -16 0 -22 -2 -12 -5z"/>
<path d="M14133 25083 c9 -2 23 -2 30 0 6 3 -1 5 -18 5 -16 0 -22 -2 -12 -5z"/>
<path d="M12238 25073 c6 -2 18 -2 25 0 6 3 1 5 -13 5 -14 0 -19 -2 -12 -5z"/>
<path d="M14258 25073 c6 -2 18 -2 25 0 6 3 1 5 -13 5 -14 0 -19 -2 -12 -5z"/>
<path d="M12128 25063 c6 -2 18 -2 25 0 6 3 1 5 -13 5 -14 0 -19 -2 -12 -5z"/>
<path d="M14368 25063 c6 -2 18 -2 25 0 6 3 1 5 -13 5 -14 0 -19 -2 -12 -5z"/>
<path d="M12028 25053 c7 -3 16 -2 19 1 4 3 -2 6 -13 5 -11 0 -14 -3 -6 -6z"/>
<path d="M14478 25053 c7 -3 16 -2 19 1 4 3 -2 6 -13 5 -11 0 -14 -3 -6 -6z"/>
<path d="M11938 25043 c7 -3 16 -2 19 1 4 3 -2 6 -13 5 -11 0 -14 -3 -6 -6z"/>
<path d="M14568 25043 c7 -3 16 -2 19 1 4 3 -2 6 -13 5 -11 0 -14 -3 -6 -6z"/>
<path d="M14658 25033 c7 -3 16 -2 19 1 4 3 -2 6 -13 5 -11 0 -14 -3 -6 -6z"/>
<path d="M11768 25023 c7 -3 16 -2 19 1 4 3 -2 6 -13 5 -11 0 -14 -3 -6 -6z"/>
<path d="M14738 25023 c7 -3 16 -2 19 1 4 3 -2 6 -13 5 -11 0 -14 -3 -6 -6z"/>
<path d="M14818 25013 c7 -3 16 -2 19 1 4 3 -2 6 -13 5 -11 0 -14 -3 -6 -6z"/>
<path d="M11618 25003 c7 -3 16 -2 19 1 4 3 -2 6 -13 5 -11 0 -14 -3 -6 -6z"/>
<path d="M11478 24983 c7 -3 16 -2 19 1 4 3 -2 6 -13 5 -11 0 -14 -3 -6 -6z"/>
<path d="M12690 24739 c-1186 -60 -2374 -305 -3463 -716 -413 -155 -715 -288
-1132 -498 -912 -459 -1712 -1004 -2485 -1691 -192 -171 -626 -599 -809 -799
-1118 -1221 -1949 -2639 -2460 -4198 -511 -1560 -679 -3243 -490 -4897 185
-1618 722 -3192 1568 -4600 118 -196 408 -632 541 -815 865 -1184 1921 -2176
3147 -2957 983 -626 2071 -1103 3203 -1404 1860 -494 3848 -509 5730 -44 1070
265 2138 705 3089 1273 670 399 1237 819 1841 1361 193 172 641 621 820 821
589 657 1091 1359 1512 2115 1679 3011 1904 6656 611 9860 -570 1414 -1398
2674 -2473 3764 -604 613 -1188 1093 -1880 1548 -1624 1068 -3452 1696 -5390
1853 -429 34 -1063 45 -1480 24z m1970 -1836 c0 -5 -960 -968 -2132 -2140
l-2133 -2133 -955 0 -955 0 898 898 c959 959 930 927 867 959 -20 10 -238 13
-1010 13 l-985 0 1205 1205 1205 1205 1997 0 c1099 0 1998 -3 1998 -7z m1045
-933 c615 -615 917 -910 930 -910 44 0 45 10 45 307 l0 283 305 0 305 0 0
-632 0 -633 877 -877 878 -878 -203 0 -203 0 -2035 2017 -2035 2017 108 108
c59 59 110 108 113 108 3 0 415 -409 915 -910z m-65 -2044 l0 -1545 48 -3 47
-3 0 -115 0 -115 -1237 -3 -1238 -2 0 120 0 120 50 0 50 0 0 1545 0 1545 1140
0 1140 0 0 -1544z m-6390 -391 c-475 -475 -867 -861 -871 -857 -7 8 -579 1703
-579 1715 0 4 521 7 1157 7 l1158 0 -865 -865z m-1446 530 l67 -200 -194 -615
-193 -615 -157 -3 c-86 -1 -157 0 -157 3 0 23 555 1644 560 1638 4 -4 37 -98
74 -208z m-572 -931 l-169 -499 -339 -3 -339 -2 505 504 c277 278 506 504 507
502 2 -2 -72 -228 -165 -502z m10298 -1679 l0 -165 -4270 0 -4270 0 0 165 0
165 4270 0 4270 0 0 -165z m-2 -632 c-3 -251 -5 -272 -26 -325 -49 -121 -148
-220 -272 -271 l-55 -22 -965 -6 c-838 -4 -977 -7 -1055 -22 -629 -115 -1115
-477 -1386 -1032 -137 -283 -189 -535 -189 -926 l0 -189 -320 0 -320 0 0 195
c0 295 -25 478 -96 692 -194 594 -680 1054 -1284 1217 -225 61 -200 59 -1250
65 l-965 6 -57 23 c-118 48 -223 152 -269 269 -22 54 -24 74 -27 326 l-3 267
4271 0 4271 0 -3 -267z m-6958 -1519 l55 -166 159 -58 c88 -32 163 -65 167
-72 14 -22 -10 -35 -173 -88 l-157 -51 -15 -42 c-9 -23 -36 -96 -60 -162 -63
-174 -69 -172 -140 42 l-56 168 -150 54 c-162 58 -186 71 -178 92 3 8 80 38
170 68 l165 54 53 146 c64 177 66 181 88 181 14 0 29 -36 72 -166z m5857 -198
c29 -83 56 -153 60 -157 5 -4 71 -28 148 -55 144 -49 172 -63 162 -86 -2 -7
-75 -37 -160 -66 l-155 -53 -55 -157 c-71 -206 -74 -207 -143 -13 -28 79 -55
151 -60 159 -5 8 -77 38 -159 67 -205 72 -205 75 2 147 l158 55 54 157 c48
140 56 157 75 154 17 -2 30 -29 73 -152z m-6705 -503 c9 -10 73 -192 142 -404
69 -213 132 -392 140 -398 8 -7 184 -74 391 -150 206 -76 384 -146 395 -156
25 -23 26 -57 2 -79 -11 -9 -192 -73 -403 -142 -211 -69 -391 -133 -400 -142
-9 -9 -67 -156 -129 -327 -150 -413 -167 -457 -182 -467 -20 -12 -64 -9 -77 6
-6 7 -70 191 -141 409 -72 218 -134 399 -139 402 -5 3 -182 68 -393 145 -210
77 -389 147 -397 154 -17 18 -18 64 0 81 8 7 190 70 404 140 215 70 395 132
401 139 6 6 73 180 148 386 76 206 144 385 152 398 18 27 64 30 86 5z m1705
-85 c4 -7 31 -83 58 -168 l51 -155 164 -61 c218 -80 218 -81 2 -154 -90 -30
-167 -62 -172 -70 -4 -8 -31 -78 -59 -154 -56 -150 -65 -168 -86 -160 -8 3
-37 76 -66 162 -28 87 -56 162 -63 168 -6 6 -76 35 -156 63 -158 57 -184 72
-160 95 8 7 83 35 165 61 83 26 154 50 158 55 5 4 33 74 63 156 30 82 56 155
59 162 2 6 11 12 19 12 8 0 18 -6 23 -12z m4196 -90 c9 -7 74 -179 146 -387
71 -205 133 -377 138 -382 5 -5 177 -67 382 -138 206 -72 377 -134 381 -138 4
-4 11 -18 14 -30 14 -45 -23 -63 -399 -192 -198 -68 -367 -131 -376 -140 -9
-9 -69 -171 -134 -361 -65 -190 -124 -357 -132 -372 -22 -46 -60 -55 -100 -23
-2 0 -61 169 -132 375 -71 205 -135 378 -143 385 -7 7 -175 68 -372 136 -198
68 -370 132 -383 142 -26 21 -29 45 -10 70 7 10 167 71 387 148 206 71 378
133 382 137 4 4 66 176 138 382 75 216 137 380 147 388 9 6 24 12 33 12 9 0
24 -6 33 -12z m1634 -60 c6 -7 32 -76 58 -153 27 -77 53 -145 59 -151 6 -6 74
-32 151 -58 153 -52 179 -67 155 -89 -8 -8 -78 -35 -155 -62 -77 -26 -145 -53
-151 -59 -6 -6 -33 -74 -59 -151 -26 -77 -54 -147 -62 -155 -22 -24 -36 2 -88
157 -26 79 -53 147 -59 152 -6 5 -73 31 -148 56 -75 26 -145 53 -155 60 -16
12 -16 15 -3 28 8 8 78 36 155 62 77 26 145 53 152 59 6 6 33 74 59 151 46
137 59 165 74 165 4 0 12 -6 17 -12z m-3679 -2385 l-3 -1848 -25 -50 c-13 -27
-47 -73 -75 -101 -149 -150 -406 -102 -502 94 l-28 57 -3 1848 -2 1847 320 0
320 0 -2 -1847z m-7853 -2213 c32 -5 91 -19 130 -31 l72 -21 16 -128 c21 -156
10 -202 -43 -185 -24 8 -31 31 -35 114 -2 73 -18 113 -62 152 -46 42 -89 54
-193 54 -108 -1 -157 -14 -206 -58 -71 -61 -83 -135 -38 -225 35 -71 120 -146
326 -288 216 -149 339 -265 389 -369 30 -63 33 -79 34 -160 0 -77 -4 -98 -27
-147 -49 -106 -157 -189 -298 -233 -135 -41 -352 -29 -540 31 l-77 24 -23 165
c-23 175 -22 210 9 218 41 10 58 -17 63 -100 5 -90 27 -140 85 -194 49 -48
103 -74 181 -89 215 -43 394 69 395 245 0 104 -69 182 -303 342 -267 183 -354
262 -412 377 -41 79 -50 195 -23 277 23 67 98 145 175 181 107 51 270 70 405
48z m10153 -21 c76 -28 135 -76 164 -132 34 -68 22 -126 -61 -288 -84 -164
-97 -211 -76 -271 19 -56 19 -77 -2 -100 -27 -30 -82 -19 -98 19 -42 101 -17
182 113 380 106 162 115 221 43 286 -110 99 -349 114 -504 30 -103 -57 -182
-177 -213 -328 -22 -106 -14 -360 15 -485 65 -282 199 -462 389 -520 156 -48
335 -5 422 103 29 37 59 119 60 166 0 35 23 71 45 71 25 0 48 -38 41 -67 -17
-69 -90 -240 -109 -256 -46 -37 -199 -106 -272 -122 -113 -25 -292 -17 -401
19 -193 62 -353 219 -428 419 -62 162 -73 404 -26 566 80 280 278 466 560 526
96 21 258 13 338 -16z m812 -701 c0 -408 4 -739 9 -747 7 -11 24 -12 75 -7 55
5 67 4 72 -9 4 -8 1 -22 -6 -30 -10 -13 -55 -15 -274 -15 -143 0 -267 4 -274
9 -8 5 -12 17 -10 27 3 17 11 19 72 16 50 -3 71 0 77 10 12 19 12 1345 -1
1353 -5 3 -33 -6 -61 -20 -47 -24 -53 -25 -67 -11 -15 15 -15 18 3 35 20 19
319 118 363 120 l22 1 0 -732z m-4791 408 c32 -17 44 -47 31 -82 -13 -32 -54
-41 -96 -20 -19 9 -45 16 -58 16 -34 0 -108 -28 -139 -53 l-27 -23 44 -31 c62
-44 112 -116 137 -197 18 -56 21 -85 17 -158 -17 -286 -253 -429 -613 -372
-37 5 -44 2 -86 -35 -54 -47 -67 -82 -45 -117 23 -34 75 -44 241 -44 252 -1
384 -28 464 -96 55 -47 74 -87 75 -154 1 -179 -196 -280 -546 -280 -229 0
-380 47 -440 138 -11 17 -18 46 -18 78 0 60 24 102 87 150 l42 32 -26 23 c-55
51 -69 139 -33 210 21 41 79 90 142 118 l37 17 -35 19 c-50 27 -112 98 -142
163 -25 52 -27 68 -27 177 0 109 2 125 27 177 50 107 134 176 263 214 72 22
257 25 324 5 44 -13 45 -13 75 22 96 108 231 151 325 103z m-5147 -117 c74
-16 120 -41 161 -90 l36 -41 3 38 3 38 90 28 c50 15 102 30 118 34 l27 6 0
-705 c0 -388 3 -712 6 -721 8 -22 29 -20 74 5 56 32 97 6 53 -33 -14 -12 -344
-118 -368 -118 -3 0 -5 131 -5 292 l0 292 -24 -33 c-60 -81 -150 -116 -285
-109 -68 4 -97 10 -140 32 -105 54 -180 161 -218 312 -24 98 -24 344 0 434 71
262 243 387 469 339z m998 -396 c0 -264 4 -422 11 -448 14 -50 51 -100 89
-120 75 -39 192 0 261 87 l39 50 0 354 c0 350 0 354 -21 354 -11 0 -37 -10
-58 -22 -33 -19 -41 -20 -55 -9 -22 18 -20 28 7 46 21 14 343 115 366 115 8 0
11 -155 11 -500 0 -557 -4 -530 68 -490 57 32 100 18 70 -23 -13 -17 -324
-117 -365 -117 -22 0 -23 3 -23 108 l-1 107 -22 -30 c-47 -64 -109 -123 -159
-151 -49 -27 -61 -29 -153 -29 -85 0 -106 3 -143 23 -62 33 -118 96 -142 158
-19 51 -20 77 -20 403 0 192 -3 363 -6 380 -8 37 -24 39 -81 9 -38 -20 -44
-21 -58 -7 -30 30 4 49 186 104 96 30 180 54 187 54 9 1 12 -87 12 -406z
m1572 377 c130 -40 208 -132 208 -245 0 -116 -49 -169 -251 -276 -158 -82
-239 -148 -283 -228 -34 -64 -31 -82 28 -148 62 -69 146 -106 241 -107 87 -1
132 14 178 60 42 42 64 100 77 203 13 97 36 124 74 85 25 -24 20 -55 -30 -180
-54 -134 -89 -176 -193 -227 -55 -27 -77 -32 -159 -35 -115 -5 -183 8 -279 55
-87 42 -177 129 -222 213 -111 208 -88 505 52 684 63 79 182 148 297 170 50 9
198 -4 262 -24z m1038 19 c120 -19 220 -81 262 -163 29 -56 29 -146 0 -203
-29 -57 -74 -90 -221 -168 -69 -37 -150 -85 -179 -106 -58 -44 -115 -116 -133
-167 -10 -29 -8 -36 25 -81 67 -91 153 -134 271 -135 89 0 146 21 184 70 31
40 59 123 67 203 7 79 25 102 64 81 31 -17 25 -61 -26 -192 -53 -135 -82 -168
-194 -221 -55 -27 -79 -32 -161 -35 -157 -7 -281 35 -386 131 -71 65 -115 134
-150 234 -23 67 -27 95 -27 193 -1 65 5 139 13 170 69 280 304 435 591 389z
m2210 0 c123 -19 218 -79 263 -164 29 -55 29 -145 -1 -202 -30 -57 -74 -90
-221 -168 -191 -101 -265 -165 -307 -263 -12 -29 -12 -37 2 -63 25 -49 92
-109 153 -137 76 -35 195 -37 258 -4 76 40 117 120 129 253 8 77 26 100 64 79
32 -17 25 -68 -26 -195 -53 -132 -84 -167 -193 -218 -55 -26 -81 -32 -157 -35
-167 -8 -299 42 -409 151 -110 110 -159 237 -159 412 0 179 43 301 145 409
117 126 273 175 459 145z m1192 -20 c131 -43 208 -134 208 -244 0 -110 -59
-174 -248 -273 -188 -98 -265 -164 -307 -266 -14 -32 -13 -36 14 -73 83 -115
215 -170 343 -144 63 13 120 55 147 109 22 43 41 128 41 179 0 37 23 73 46 73
22 0 46 -46 39 -72 -4 -13 -25 -70 -46 -128 -36 -93 -46 -111 -96 -157 -85
-80 -139 -98 -293 -97 -106 0 -134 3 -182 23 -168 66 -286 200 -333 378 -21
77 -21 249 0 328 40 154 136 281 259 340 39 18 94 38 121 44 72 15 214 5 287
-20z m3828 5 c137 -40 220 -135 220 -252 -1 -106 -63 -174 -242 -267 -182 -94
-256 -155 -303 -249 -24 -47 -24 -50 -7 -78 9 -17 41 -52 69 -78 137 -126 359
-113 430 24 23 44 43 124 43 172 0 54 30 94 57 78 40 -24 38 -53 -13 -182 -43
-111 -52 -128 -101 -172 -72 -66 -142 -92 -263 -98 -247 -11 -449 125 -531
358 -31 88 -38 278 -15 371 51 201 198 351 381 388 65 13 205 6 275 -15z m980
15 c175 -28 287 -136 320 -309 6 -29 10 -202 10 -385 0 -283 2 -334 15 -345
10 -9 34 -10 79 -6 52 6 64 5 69 -8 3 -9 -1 -22 -9 -31 -13 -13 -45 -15 -207
-13 -191 3 -192 3 -195 26 l-3 22 -26 -20 c-59 -46 -214 -64 -335 -39 -253 53
-360 286 -208 452 55 60 129 100 292 158 154 55 212 84 248 126 31 35 32 37
28 123 -3 74 -7 92 -30 128 -39 58 -78 76 -164 76 -143 1 -213 -67 -222 -213
-2 -42 -9 -84 -14 -94 -13 -26 -50 -17 -66 15 -18 38 12 275 37 287 20 10 166
49 206 54 58 8 111 7 175 -4z m980 -101 l1 -113 22 30 c53 73 113 127 175 157
57 28 76 33 142 33 129 -1 226 -61 279 -175 l26 -55 3 -400 c2 -286 6 -403 15
-413 9 -11 27 -13 78 -8 54 6 68 4 72 -8 4 -9 -1 -22 -9 -31 -22 -22 -535 -23
-554 0 -24 29 -6 40 71 40 l74 0 3 375 c2 250 -1 388 -8 413 -46 158 -238 163
-356 8 l-34 -44 0 -359 c0 -242 4 -366 11 -380 10 -19 17 -20 79 -14 59 6 68
5 74 -11 15 -39 -14 -43 -290 -43 -219 0 -264 2 -274 15 -7 8 -10 22 -6 30 5
14 17 15 76 9 69 -6 70 -6 80 20 11 30 15 821 4 875 -8 37 -28 40 -79 10 -19
-12 -42 -18 -50 -15 -18 7 -20 42 -2 53 15 9 347 112 365 112 9 1 12 -28 12
-111z m-12382 -1875 c49 -37 67 -71 67 -128 0 -119 -122 -192 -225 -134 -113
64 -101 227 20 278 35 15 108 7 138 -16z m2512 -705 c0 -403 4 -739 9 -746 6
-10 27 -13 77 -10 61 3 69 1 72 -16 2 -10 -2 -22 -10 -27 -7 -5 -100 -9 -205
-9 l-193 0 0 55 0 55 -41 -45 c-55 -60 -125 -86 -233 -86 -193 -1 -322 111
-383 332 -14 50 -18 102 -18 234 0 150 3 179 23 245 72 230 231 343 438 310
80 -13 138 -41 182 -88 l32 -36 0 217 c0 212 0 217 -21 217 -11 0 -38 -10 -59
-22 -37 -22 -40 -22 -57 -5 -17 16 -16 18 2 36 18 18 326 118 368 120 16 1 17
-40 17 -731z m4851 704 c143 -51 212 -143 188 -254 -5 -24 -41 -106 -80 -183
-81 -160 -91 -207 -64 -279 16 -43 16 -47 1 -71 -11 -17 -25 -25 -46 -25 -35
0 -55 18 -70 66 -26 79 6 175 111 331 134 198 133 280 -6 344 -183 86 -405 50
-534 -86 -100 -105 -136 -223 -135 -440 2 -504 219 -835 548 -835 200 0 331
106 352 284 8 64 28 85 64 66 31 -17 25 -62 -26 -190 l-46 -115 -61 -37 c-136
-81 -240 -110 -397 -109 -389 1 -665 266 -710 679 -54 502 288 898 760 877 59
-2 116 -11 151 -23z m819 -700 c0 -573 3 -732 13 -746 14 -20 34 -22 99 -11
39 6 49 4 54 -9 3 -9 1 -23 -6 -31 -11 -13 -52 -15 -283 -13 -243 3 -271 5
-281 20 -18 30 5 42 61 32 63 -13 82 -8 94 22 10 28 13 1292 3 1318 -8 22 -36
20 -79 -5 -19 -12 -42 -18 -50 -15 -18 7 -20 42 -2 53 17 11 338 111 360 112
16 1 17 -40 17 -727z m-10176 698 c29 -11 35 -44 11 -54 -9 -3 -36 0 -60 6
-32 9 -48 9 -56 1 -7 -7 43 -156 177 -527 104 -283 191 -510 195 -503 3 6 55
155 114 329 l108 317 -63 172 c-35 94 -72 182 -82 195 -21 26 -66 32 -114 14
-15 -6 -35 -8 -45 -5 -28 9 -24 44 7 55 14 6 142 10 289 10 245 0 264 -1 286
-19 22 -18 23 -21 8 -36 -14 -14 -22 -15 -59 -5 -46 12 -60 5 -60 -32 0 -16
355 -997 364 -1006 2 -2 81 229 176 513 127 381 169 520 161 528 -8 8 -23 8
-56 -1 -51 -14 -75 -8 -75 19 0 33 45 41 207 37 161 -3 189 -11 166 -46 -8
-12 -20 -16 -44 -13 -85 11 -111 7 -129 -19 -10 -14 -125 -343 -256 -732 -233
-696 -237 -708 -263 -708 -25 0 -31 14 -205 493 -99 270 -182 496 -184 502 -3
5 -81 -216 -172 -490 l-167 -500 -28 0 c-27 0 -28 1 -290 720 -161 440 -270
724 -281 732 -22 16 -56 16 -108 2 -32 -9 -41 -8 -55 6 -15 15 -14 18 8 36 22
18 41 19 286 19 147 0 275 -4 289 -10z m2036 -930 c5 -508 6 -523 25 -530 10
-4 39 -3 62 3 24 5 50 6 58 3 20 -7 19 -42 -1 -50 -24 -9 -527 -7 -542 3 -8 5
-12 17 -10 27 3 17 11 19 72 16 50 -3 71 0 77 10 5 7 9 215 9 461 0 504 4 480
-75 437 -43 -24 -75 -22 -75 3 0 8 7 20 16 28 17 14 354 119 369 115 6 -2 12
-190 15 -526z m650 418 l1 -113 22 30 c92 125 192 187 304 188 38 1 87 -5 110
-11 53 -16 119 -66 155 -117 53 -77 58 -123 58 -537 l0 -379 22 -8 c12 -4 41
-4 65 2 24 5 50 6 58 3 20 -7 19 -42 -1 -50 -24 -9 -527 -7 -542 3 -8 5 -12
17 -10 27 4 19 13 21 106 13 21 -1 37 3 43 12 5 8 8 174 7 394 -3 374 -3 381
-26 423 -34 64 -72 84 -153 80 -78 -4 -130 -34 -185 -107 l-34 -44 0 -366 c0
-201 4 -372 9 -379 6 -10 27 -13 77 -10 65 3 69 2 72 -19 2 -16 -3 -24 -20
-28 -13 -3 -137 -4 -277 -3 -227 3 -255 5 -265 20 -19 30 5 42 62 31 27 -5 59
-6 71 -2 l21 8 0 461 c0 513 5 478 -70 440 -46 -24 -66 -25 -73 -6 -12 30 23
49 193 101 96 29 181 54 188 54 9 1 12 -28 12 -111z m2730 86 c86 -25 150 -62
210 -123 104 -105 150 -235 150 -421 0 -286 -127 -476 -363 -545 -73 -21 -231
-21 -311 0 -226 60 -365 267 -366 543 0 161 48 311 130 404 125 142 346 199
550 142z m5582 16 c104 -15 175 -46 229 -100 102 -102 99 -251 -7 -338 -21
-17 -102 -66 -182 -109 -162 -87 -242 -154 -281 -236 -21 -43 -22 -52 -10 -73
47 -89 156 -159 264 -170 162 -17 251 67 277 259 13 96 28 118 68 97 31 -17
25 -62 -25 -190 -48 -121 -64 -144 -133 -192 -129 -89 -350 -94 -506 -10 -76
40 -186 154 -223 232 -45 93 -67 213 -60 321 22 305 215 506 497 518 14 0 55
-4 92 -9z m1053 0 c196 -29 312 -150 335 -351 6 -46 10 -220 10 -387 0 -300 0
-303 21 -311 12 -4 44 -3 71 2 57 11 81 -1 62 -31 -10 -15 -34 -17 -208 -20
l-196 -2 0 25 0 26 -29 -21 c-52 -37 -111 -51 -207 -51 -153 0 -268 43 -343
127 -49 55 -64 106 -59 190 8 134 89 205 339 298 255 94 299 128 299 231 0
103 -38 178 -109 215 -13 7 -54 12 -92 12 -150 -2 -218 -70 -219 -218 0 -76
-19 -110 -57 -102 -31 6 -38 49 -24 165 19 162 11 148 104 173 142 39 199 44
302 30z m993 -104 l3 -107 41 52 c79 101 138 140 241 160 71 15 166 -6 230
-49 48 -31 102 -106 117 -160 6 -22 10 -185 10 -403 0 -202 3 -381 6 -399 8
-40 33 -49 96 -37 57 11 81 -1 62 -31 -10 -15 -38 -17 -281 -20 -285 -2 -303
0 -287 43 6 14 14 16 53 9 118 -18 111 -42 111 375 0 411 -3 435 -70 495 -36
32 -46 36 -97 36 -74 0 -130 -27 -188 -92 l-45 -50 0 -379 c0 -379 0 -380 21
-388 12 -4 44 -3 71 2 57 11 81 -1 62 -31 -10 -15 -38 -17 -265 -20 -140 -1
-264 0 -277 3 -17 4 -22 12 -20 28 3 21 7 22 72 19 50 -3 71 0 77 10 5 7 9
215 9 461 0 504 4 480 -75 437 -43 -24 -75 -22 -75 3 0 8 7 20 16 28 17 14
354 119 369 115 6 -1 11 -49 13 -110z m1464 104 c104 -15 175 -46 229 -100
108 -108 98 -258 -23 -350 -26 -19 -102 -64 -170 -100 -148 -78 -207 -124
-253 -193 -50 -76 -51 -94 -11 -149 90 -121 271 -172 392 -110 22 11 47 28 56
39 31 34 59 112 70 199 13 93 29 115 68 94 31 -17 25 -62 -25 -189 -47 -120
-64 -145 -133 -193 -129 -89 -350 -94 -506 -10 -79 41 -187 155 -225 234 -110
233 -65 535 104 697 117 113 257 156 427 131z m878 -107 l0 -118 34 51 c90
133 244 204 349 161 62 -26 70 -89 16 -118 -16 -8 -30 -7 -60 5 -22 9 -54 16
-72 16 -76 0 -187 -85 -241 -185 -20 -38 -21 -54 -24 -386 -3 -406 -10 -384
109 -365 39 7 47 5 53 -9 16 -43 -2 -45 -287 -43 -243 3 -271 5 -281 20 -19
30 5 42 62 31 63 -12 88 -3 96 37 8 42 8 817 0 859 -8 37 -22 39 -74 10 -21
-12 -45 -19 -54 -16 -19 8 -21 43 -4 53 15 9 347 112 366 113 9 1 12 -29 12
-116z m1005 106 c43 -6 106 -19 140 -30 71 -22 67 -14 85 -159 13 -106 5 -150
-29 -150 -30 0 -42 24 -46 93 -7 123 -57 179 -174 195 -151 21 -237 -52 -202
-170 17 -57 84 -125 241 -243 167 -127 216 -175 248 -244 21 -45 24 -64 20
-120 -6 -83 -32 -135 -98 -194 -86 -77 -207 -110 -356 -96 -94 9 -242 56 -248
78 -11 41 -37 261 -34 291 4 42 31 61 53 39 11 -11 17 -40 19 -95 5 -89 19
-133 61 -182 45 -53 98 -75 197 -80 75 -4 91 -2 126 18 51 29 82 83 82 144 0
85 -20 108 -240 272 -239 179 -300 253 -300 365 0 139 105 238 283 268 74 12
86 12 172 0z m-10021 -41 c8 -13 7 -21 -2 -30 -9 -9 -23 -9 -63 1 -36 10 -54
10 -62 2 -7 -7 26 -115 118 -380 71 -204 130 -369 131 -368 2 2 41 113 87 248
l84 245 -41 118 c-50 145 -60 154 -146 137 -33 -7 -65 -9 -70 -6 -16 10 -12
42 6 49 9 3 137 6 284 6 254 0 270 -1 279 -19 18 -32 -10 -46 -63 -32 -61 15
-66 14 -66 -11 0 -25 242 -728 251 -728 3 0 61 164 129 366 86 257 120 368
112 376 -7 7 -25 6 -61 -3 -40 -10 -54 -10 -63 -1 -9 9 -10 17 -2 30 10 15 33
17 170 20 180 3 204 0 204 -28 0 -29 -14 -32 -80 -19 -86 17 -99 6 -143 -123
-19 -57 -96 -283 -171 -503 l-136 -400 -64 -3 -64 -3 -49 143 c-28 79 -81 235
-118 346 -37 112 -71 200 -75 195 -4 -4 -59 -160 -121 -345 l-114 -338 -65 0
-65 0 -171 502 c-195 574 -183 550 -280 529 -49 -11 -58 -11 -72 3 -13 12 -13
18 -2 31 11 13 48 15 288 13 247 -3 276 -5 286 -20z"/>
<path d="M11266 9285 c-84 -30 -130 -109 -149 -255 -22 -177 20 -356 96 -414
73 -56 191 -56 263 -1 96 73 131 331 72 523 -40 131 -156 192 -282 147z"/>
<path d="M11034 8139 c-7 -15 -14 -50 -14 -76 0 -130 152 -213 362 -199 120 7
195 34 237 82 26 29 31 43 31 88 0 42 -5 57 -22 74 -39 36 -79 44 -233 48 -82
2 -194 6 -248 8 l-98 3 -15 -28z"/>
<path d="M6654 9251 c-34 -15 -81 -79 -98 -134 -28 -88 -36 -166 -36 -337 1
-333 62 -480 201 -480 116 0 175 62 205 217 17 89 19 424 4 523 -14 83 -52
163 -93 192 -35 25 -143 36 -183 19z"/>
<path d="M9078 9290 c-82 -26 -142 -96 -174 -205 -30 -99 -22 -314 16 -455
l12 -44 15 31 c17 35 72 103 195 238 104 114 141 183 140 259 0 63 -29 125
-70 155 -34 24 -96 34 -134 21z"/>
<path d="M10195 9291 c-70 -17 -130 -78 -166 -167 -21 -53 -24 -75 -24 -219 0
-122 4 -179 19 -240 l18 -79 18 34 c17 33 50 72 219 263 75 83 110 145 118
205 11 80 -36 170 -104 198 -35 15 -52 16 -98 5z"/>
<path d="M12400 9288 c-171 -48 -236 -314 -159 -651 l11 -47 38 57 c20 32 82
106 137 165 112 121 149 170 169 225 35 99 -7 214 -93 249 -37 16 -54 16 -103
2z"/>
<path d="M13508 9286 c-58 -21 -87 -43 -119 -94 -40 -63 -59 -130 -66 -232 -7
-106 25 -360 46 -360 3 0 15 17 26 37 11 20 70 92 132 159 164 180 193 229
193 324 0 68 -35 129 -90 158 -50 25 -70 26 -122 8z"/>
<path d="M17348 9286 c-58 -21 -87 -43 -119 -94 -59 -93 -80 -235 -60 -400 13
-104 31 -192 40 -192 4 0 15 16 26 36 10 19 76 98 145 175 76 84 138 161 153
194 54 108 26 227 -63 273 -50 25 -70 26 -122 8z"/>
<path d="M18637 8903 c-4 -7 -63 -57 -130 -112 -130 -106 -167 -146 -197 -214
-67 -146 43 -300 202 -285 58 6 94 30 120 80 17 32 18 59 16 289 -2 140 -7
248 -11 242z"/>
<path d="M9150 6863 c-8 -3 -28 -17 -43 -32 -73 -67 -100 -185 -100 -441 0
-343 58 -480 201 -480 104 0 160 48 194 168 15 51 21 111 25 257 9 311 -19
441 -110 509 -27 20 -134 33 -167 19z"/>
<path d="M10345 6883 c-121 -63 -178 -219 -178 -488 0 -335 92 -515 263 -515
93 0 157 47 205 152 43 94 58 187 59 358 0 171 -16 272 -61 367 -26 55 -86
117 -129 133 -38 15 -125 11 -159 -7z"/>
<path d="M16031 6898 c-85 -15 -157 -98 -187 -218 -21 -81 -15 -299 11 -408
l17 -72 38 57 c20 32 82 106 137 165 112 121 149 170 169 225 26 74 11 150
-40 209 -36 41 -80 54 -145 42z"/>
<path d="M17312 6523 c-1 -6 -57 -56 -125 -111 -168 -136 -201 -176 -226 -269
-23 -85 21 -183 99 -223 74 -38 188 -20 224 35 31 47 37 108 34 345 -2 129 -4
230 -6 223z"/>
<path d="M19541 6898 c-85 -15 -157 -98 -187 -218 -21 -81 -15 -299 11 -408
l17 -72 38 57 c20 32 81 105 134 161 171 184 206 257 174 364 -16 54 -65 108
-108 117 -19 4 -55 4 -79 -1z"/>
<path d="M1531 14994 c0 -11 3 -14 6 -6 3 7 2 16 -1 19 -3 4 -6 -2 -5 -13z"/>
<path d="M1511 14854 c0 -11 3 -14 6 -6 3 7 2 16 -1 19 -3 4 -6 -2 -5 -13z"/>
<path d="M25001 14854 c0 -11 3 -14 6 -6 3 7 2 16 -1 19 -3 4 -6 -2 -5 -13z"/>
<path d="M1491 14694 c0 -11 3 -14 6 -6 3 7 2 16 -1 19 -3 4 -6 -2 -5 -13z"/>
<path d="M25021 14694 c0 -11 3 -14 6 -6 3 7 2 16 -1 19 -3 4 -6 -2 -5 -13z"/>
<path d="M1481 14614 c0 -11 3 -14 6 -6 3 7 2 16 -1 19 -3 4 -6 -2 -5 -13z"/>
<path d="M25031 14614 c0 -11 3 -14 6 -6 3 7 2 16 -1 19 -3 4 -6 -2 -5 -13z"/>
<path d="M25042 14520 c0 -14 2 -19 5 -12 2 6 2 18 0 25 -3 6 -5 1 -5 -13z"/>
<path d="M1471 14514 c0 -11 3 -14 6 -6 3 7 2 16 -1 19 -3 4 -6 -2 -5 -13z"/>
<path d="M1462 14420 c0 -14 2 -19 5 -12 2 6 2 18 0 25 -3 6 -5 1 -5 -13z"/>
<path d="M25052 14420 c0 -14 2 -19 5 -12 2 6 2 18 0 25 -3 6 -5 1 -5 -13z"/>
<path d="M1452 14310 c0 -14 2 -19 5 -12 2 6 2 18 0 25 -3 6 -5 1 -5 -13z"/>
<path d="M25062 14310 c0 -14 2 -19 5 -12 2 6 2 18 0 25 -3 6 -5 1 -5 -13z"/>
<path d="M25072 14195 c0 -16 2 -22 5 -12 2 9 2 23 0 30 -3 6 -5 -1 -5 -18z"/>
<path d="M1442 14190 c0 -14 2 -19 5 -12 2 6 2 18 0 25 -3 6 -5 1 -5 -13z"/>
<path d="M1432 14055 c0 -16 2 -22 5 -12 2 9 2 23 0 30 -3 6 -5 -1 -5 -18z"/>
<path d="M25082 14055 c0 -16 2 -22 5 -12 2 9 2 23 0 30 -3 6 -5 -1 -5 -18z"/>
<path d="M25093 13880 c0 -25 2 -35 4 -22 2 12 2 32 0 45 -2 12 -4 2 -4 -23z"/>
<path d="M1423 13875 c0 -22 2 -30 4 -17 2 12 2 30 0 40 -3 9 -5 -1 -4 -23z"/>
<path d="M1413 13630 c0 -36 2 -50 4 -32 2 17 2 47 0 65 -2 17 -4 3 -4 -33z"/>
<path d="M25103 13635 c0 -33 2 -45 4 -27 2 18 2 45 0 60 -2 15 -4 0 -4 -33z"/>
<path d="M25103 12905 c0 -38 2 -53 4 -32 2 20 2 52 0 70 -2 17 -4 1 -4 -38z"/>
<path d="M1413 12900 c0 -36 2 -50 4 -32 2 17 2 47 0 65 -2 17 -4 3 -4 -33z"/>
<path d="M25093 12660 c0 -25 2 -35 4 -22 2 12 2 32 0 45 -2 12 -4 2 -4 -23z"/>
<path d="M1423 12655 c0 -22 2 -30 4 -17 2 12 2 30 0 40 -3 9 -5 -1 -4 -23z"/>
<path d="M25083 12485 c0 -22 2 -30 4 -17 2 12 2 30 0 40 -3 9 -5 -1 -4 -23z"/>
<path d="M1432 12485 c0 -16 2 -22 5 -12 2 9 2 23 0 30 -3 6 -5 -1 -5 -18z"/>
<path d="M25072 12350 c0 -19 2 -27 5 -17 2 9 2 25 0 35 -3 9 -5 1 -5 -18z"/>
<path d="M1442 12340 c0 -14 2 -19 5 -12 2 6 2 18 0 25 -3 6 -5 1 -5 -13z"/>
<path d="M25062 12225 c0 -16 2 -22 5 -12 2 9 2 23 0 30 -3 6 -5 -1 -5 -18z"/>
<path d="M1452 12220 c0 -14 2 -19 5 -12 2 6 2 18 0 25 -3 6 -5 1 -5 -13z"/>
<path d="M25052 12115 c0 -16 2 -22 5 -12 2 9 2 23 0 30 -3 6 -5 -1 -5 -18z"/>
<path d="M1461 12114 c0 -11 3 -14 6 -6 3 7 2 16 -1 19 -3 4 -6 -2 -5 -13z"/>
<path d="M25042 12020 c0 -14 2 -19 5 -12 2 6 2 18 0 25 -3 6 -5 1 -5 -13z"/>
<path d="M1471 12014 c0 -11 3 -14 6 -6 3 7 2 16 -1 19 -3 4 -6 -2 -5 -13z"/>
<path d="M25032 11930 c0 -14 2 -19 5 -12 2 6 2 18 0 25 -3 6 -5 1 -5 -13z"/>
<path d="M1481 11924 c0 -11 3 -14 6 -6 3 7 2 16 -1 19 -3 4 -6 -2 -5 -13z"/>
<path d="M25022 11840 c0 -14 2 -19 5 -12 2 6 2 18 0 25 -3 6 -5 1 -5 -13z"/>
<path d="M1491 11834 c0 -11 3 -14 6 -6 3 7 2 16 -1 19 -3 4 -6 -2 -5 -13z"/>
<path d="M25012 11760 c0 -14 2 -19 5 -12 2 6 2 18 0 25 -3 6 -5 1 -5 -13z"/>
<path d="M1501 11754 c0 -11 3 -14 6 -6 3 7 2 16 -1 19 -3 4 -6 -2 -5 -13z"/>
<path d="M25001 11684 c0 -11 3 -14 6 -6 3 7 2 16 -1 19 -3 4 -6 -2 -5 -13z"/>
<path d="M24992 11610 c0 -14 2 -19 5 -12 2 6 2 18 0 25 -3 6 -5 1 -5 -13z"/>
<path d="M24981 11544 c0 -11 3 -14 6 -6 3 7 2 16 -1 19 -3 4 -6 -2 -5 -13z"/>
<path d="M24971 11474 c0 -11 3 -14 6 -6 3 7 2 16 -1 19 -3 4 -6 -2 -5 -13z"/>
<path d="M24961 11414 c0 -11 3 -14 6 -6 3 7 2 16 -1 19 -3 4 -6 -2 -5 -13z"/>
<path d="M24952 11350 c0 -14 2 -19 5 -12 2 6 2 18 0 25 -3 6 -5 1 -5 -13z"/>
<path d="M24931 11234 c0 -11 3 -14 6 -6 3 7 2 16 -1 19 -3 4 -6 -2 -5 -13z"/>
<path d="M24921 11174 c0 -11 3 -14 6 -6 3 7 2 16 -1 19 -3 4 -6 -2 -5 -13z"/>
<path d="M24901 11064 c0 -11 3 -14 6 -6 3 7 2 16 -1 19 -3 4 -6 -2 -5 -13z"/>
<path d="M24891 11014 c0 -11 3 -14 6 -6 3 7 2 16 -1 19 -3 4 -6 -2 -5 -13z"/>
<path d="M24881 10964 c0 -11 3 -14 6 -6 3 7 2 16 -1 19 -3 4 -6 -2 -5 -13z"/>
<path d="M24871 10914 c0 -11 3 -14 6 -6 3 7 2 16 -1 19 -3 4 -6 -2 -5 -13z"/>
<path d="M24851 10814 c0 -11 3 -14 6 -6 3 7 2 16 -1 19 -3 4 -6 -2 -5 -13z"/>
<path d="M21804 5068 l-29 -33 33 29 c30 28 37 36 29 36 -2 0 -16 -15 -33 -32z"/>
<path d="M21444 4708 l-19 -23 23 19 c21 18 27 26 19 26 -2 0 -12 -10 -23 -22z"/>
<path d="M21279 4553 c-13 -16 -12 -17 4 -4 16 13 21 21 13 21 -2 0 -10 -8
-17 -17z"/>
<path d="M21169 4453 c-13 -16 -12 -17 4 -4 16 13 21 21 13 21 -2 0 -10 -8
-17 -17z"/>
<path d="M15858 1703 c7 -3 16 -2 19 1 4 3 -2 6 -13 5 -11 0 -14 -3 -6 -6z"/>
<path d="M15718 1673 c7 -3 16 -2 19 1 4 3 -2 6 -13 5 -11 0 -14 -3 -6 -6z"/>
<path d="M15468 1623 c7 -3 16 -2 19 1 4 3 -2 6 -13 5 -11 0 -14 -3 -6 -6z"/>
<path d="M15418 1613 c7 -3 16 -2 19 1 4 3 -2 6 -13 5 -11 0 -14 -3 -6 -6z"/>
<path d="M15308 1593 c7 -3 16 -2 19 1 4 3 -2 6 -13 5 -11 0 -14 -3 -6 -6z"/>
<path d="M15248 1583 c7 -3 16 -2 19 1 4 3 -2 6 -13 5 -11 0 -14 -3 -6 -6z"/>
<path d="M15188 1573 c7 -3 16 -2 19 1 4 3 -2 6 -13 5 -11 0 -14 -3 -6 -6z"/>
<path d="M15128 1563 c7 -3 16 -2 19 1 4 3 -2 6 -13 5 -11 0 -14 -3 -6 -6z"/>
<path d="M15068 1553 c7 -3 16 -2 19 1 4 3 -2 6 -13 5 -11 0 -14 -3 -6 -6z"/>
<path d="M14998 1543 c7 -3 16 -2 19 1 4 3 -2 6 -13 5 -11 0 -14 -3 -6 -6z"/>
<path d="M14928 1533 c7 -3 16 -2 19 1 4 3 -2 6 -13 5 -11 0 -14 -3 -6 -6z"/>
<path d="M14858 1523 c7 -3 16 -2 19 1 4 3 -2 6 -13 5 -11 0 -14 -3 -6 -6z"/>
<path d="M14778 1513 c6 -2 18 -2 25 0 6 3 1 5 -13 5 -14 0 -19 -2 -12 -5z"/>
<path d="M11798 1503 c7 -3 16 -2 19 1 4 3 -2 6 -13 5 -11 0 -14 -3 -6 -6z"/>
<path d="M14698 1503 c6 -2 18 -2 25 0 6 3 1 5 -13 5 -14 0 -19 -2 -12 -5z"/>
<path d="M14618 1493 c6 -2 18 -2 25 0 6 3 1 5 -13 5 -14 0 -19 -2 -12 -5z"/>
<path d="M11968 1483 c7 -3 16 -2 19 1 4 3 -2 6 -13 5 -11 0 -14 -3 -6 -6z"/>
<path d="M14523 1483 c9 -2 23 -2 30 0 6 3 -1 5 -18 5 -16 0 -22 -2 -12 -5z"/>
<path d="M12058 1473 c6 -2 18 -2 25 0 6 3 1 5 -13 5 -14 0 -19 -2 -12 -5z"/>
<path d="M14433 1473 c9 -2 23 -2 30 0 6 3 -1 5 -18 5 -16 0 -22 -2 -12 -5z"/>
<path d="M12168 1463 c6 -2 18 -2 25 0 6 3 1 5 -13 5 -14 0 -19 -2 -12 -5z"/>
<path d="M14323 1463 c9 -2 23 -2 30 0 6 3 -1 5 -18 5 -16 0 -22 -2 -12 -5z"/>
<path d="M12283 1453 c9 -2 23 -2 30 0 6 3 -1 5 -18 5 -16 0 -22 -2 -12 -5z"/>
<path d="M14203 1453 c9 -2 25 -2 35 0 9 3 1 5 -18 5 -19 0 -27 -2 -17 -5z"/>
<path d="M12413 1443 c9 -2 25 -2 35 0 9 3 1 5 -18 5 -19 0 -27 -2 -17 -5z"/>
<path d="M14068 1443 c12 -2 30 -2 40 0 9 3 -1 5 -23 4 -22 0 -30 -2 -17 -4z"/>
<path d="M12573 1433 c9 -2 25 -2 35 0 9 3 1 5 -18 5 -19 0 -27 -2 -17 -5z"/>
<path d="M13908 1433 c12 -2 30 -2 40 0 9 3 -1 5 -23 4 -22 0 -30 -2 -17 -4z"/>
<path d="M12783 1423 c15 -2 37 -2 50 0 12 2 0 4 -28 4 -27 0 -38 -2 -22 -4z"/>
<path d="M13678 1423 c18 -2 45 -2 60 0 15 2 0 4 -33 4 -33 0 -45 -2 -27 -4z"/>
<path d="M13198 1413 c34 -2 90 -2 125 0 34 2 6 3 -63 3 -69 0 -97 -1 -62 -3z"/>
</g>
</svg>
